<?xml version="1.0" standalone="no"?>
<!DOCTYPE svg PUBLIC "-//W3C//DTD SVG 1.1//EN" 
  "http://www.w3.org/Graphics/SVG/1.1/DTD/svg11.dtd">
<svg id="icon-nav-jobs" stroke-width='2' stroke='#c2c2c2' fill='none' margin='0px auto .5em' version="1.1"
     xmlns="http://www.w3.org/2000/svg" xmlns:xlink="http://www.w3.org/1999/xlink" viewBox="0 0 40 40"><g clip-path="url(#a)"><path d="M39 23l-19 4-19-4V12c0-2.2 1.8-4 4-4h30c2.2 0 4 1.8 4 4v11z"></path><path d="M38 24v11c0 2.2-1.8 4-4 4H6c-2.2 0-4-1.8-4-4V24M32 8H7V5c0-2.2 1.8-4 4-4h17c2.2 0 4 1.8 4 4v3z"></path><path d="M15 27c0 2.75 2.25 5 5 5s5-2.25 5-5"></path></g></svg>