<?xml version="1.0" standalone="no"?>
<!DOCTYPE svg PUBLIC "-//W3C//DTD SVG 1.1//EN" 
  "http://www.w3.org/Graphics/SVG/1.1/DTD/svg11.dtd">
<svg id="icon-nav-videos" stroke-width='2' stroke='#c2c2c2' fill='none' margin='0px auto .5em' version="1.1"
     xmlns="http://www.w3.org/2000/svg" xmlns:xlink="http://www.w3.org/1999/xlink" viewBox="0 0 40 40"><g clip-path="url(#clip0)"><path d="M20 39c10.493 0 19-8.507 19-19S30.493 1 20 1 1 9.507 1 20s8.507 19 19 19z"></path><path d="M20 33c7.18 0 13-5.82 13-13S27.18 7 20 7 7 12.82 7 20s5.82 13 13 13z"></path><path d="M17.1 17v6.6c0 .8.8 1.2 1.5.9l6-3.3c.7-.4.7-1.4 0-1.7l-6-3.3c-.7-.4-1.5 0-1.5.8z"></path></g></svg>