<svg xmlns="http://www.w3.org/2000/svg" viewBox="0 0 14 14" width="14" height="14" version="1.1">
  <path d="M12.3,12.2c-0.1,0.1-0.3,0.2-0.4,0.2H2.1c-0.2,0-0.3-0.1-0.4-0.2c-0.1-0.1-0.2-0.3-0.2-0.4V5.9h1.3 C2.7,6.3,2.7,6.7,2.7,7.1c0,1.2,0.4,2.1,1.3,3c0.9,0.8,1.9,1.2,3.1,1.2c0.8,0,1.5-0.2,2.2-0.6c0.7-0.4,1.2-0.9,1.6-1.5 c0.4-0.6,0.6-1.3,0.6-2.1c0-0.4-0.1-0.8-0.2-1.2h1.2v5.9C12.4,12,12.4,12.1,12.3,12.2z M9,8.9C8.4,9.4,7.8,9.7,7,9.7 c-0.8,0-1.4-0.3-2-0.8C4.5,8.4,4.2,7.7,4.2,7c0-0.7,0.3-1.4,0.8-1.9c0.5-0.5,1.2-0.8,2-0.8c0.8,0,1.4,0.3,2,0.8 C9.6,5.6,9.8,6.2,9.8,7C9.8,7.7,9.6,8.4,9,8.9z M12.2,4.1c-0.1,0.1-0.3,0.2-0.4,0.2h-1.6c-0.2,0-0.3-0.1-0.4-0.2S9.6,3.9,9.6,3.7 V2.2c0-0.2,0-0.3,0.2-0.4s0.3-0.2,0.4-0.2h1.6c0.2,0,0.3,0.1,0.4,0.2s0.2,0.3,0.2,0.4v1.5C12.4,3.9,12.4,4,12.2,4.1z M13.5,0.5 C13.1,0.2,12.7,0,12.2,0H1.8C1.3,0,0.9,0.2,0.5,0.5S0,1.3,0,1.8v10.4c0,0.5,0.2,0.9,0.5,1.3S1.3,14,1.8,14h10.4 c0.5,0,0.9-0.2,1.3-0.5s0.5-0.8,0.5-1.3V1.8C14,1.3,13.8,0.9,13.5,0.5z"></path>
</svg>
