<svg xmlns="http://www.w3.org/2000/svg" viewport="0 0 14 14" width="14" height="14" version="1.1">
<g id="share" data-size="14 14">
		<path d="M11.096,8.365c-0.823,0-1.559,0.367-2.066,0.945L5.565,7.578C5.6,7.385,5.618,7.21,5.618,7 S5.6,6.615,5.565,6.422L9.029,4.69c0.508,0.578,1.243,0.945,2.066,0.945c1.504,0,2.729-1.225,2.729-2.73 c0-1.505-1.226-2.73-2.729-2.73c-1.506,0-2.73,1.225-2.73,2.73c0,0.193,0.018,0.385,0.053,0.578L4.953,5.215 C4.445,4.638,3.71,4.27,2.888,4.27C1.4,4.27,0.175,5.495,0.175,7S1.4,9.73,2.905,9.73c0.823,0,1.558-0.368,2.065-0.945l3.465,1.732 C8.4,10.71,8.383,10.885,8.383,11.096c0,1.504,1.225,2.729,2.729,2.729s2.713-1.226,2.713-2.729 C13.825,9.59,12.6,8.365,11.096,8.365z M11.096,1.54c0.752,0,1.364,0.612,1.364,1.365c0,0.753-0.612,1.365-1.364,1.365 c-0.754,0-1.365-0.612-1.365-1.365C9.73,2.152,10.342,1.54,11.096,1.54z M2.905,8.365C2.152,8.365,1.54,7.752,1.54,7 c0-0.752,0.612-1.365,1.365-1.365C3.658,5.635,4.27,6.248,4.27,7C4.27,7.752,3.658,8.365,2.905,8.365z M11.096,12.46 c-0.754,0-1.365-0.612-1.365-1.364c0-0.754,0.611-1.365,1.365-1.365c0.752,0,1.364,0.611,1.364,1.365 C12.46,11.848,11.848,12.46,11.096,12.46z"></path>
	</g>
</svg>