<svg xmlns="http://www.w3.org/2000/svg" viewBox="0 0 17 14" width="14" height="14" version="1.1">
 <path d="M15,2.2c0.8-0.5,1.3-1.1,1.5-2c-0.7,0.4-1.4,0.7-2.2,0.8C13.6,0.4,12.8,0,11.8,0S10,0.3,9.3,1 c-0.7,0.7-1,1.5-1,2.5c0,0.3,0,0.5,0.1,0.8C7,4.3,5.6,3.9,4.3,3.3C3.1,2.6,2,1.7,1.2,0.6C0.9,1.2,0.7,1.8,0.7,2.4 c0,0.6,0.1,1.1,0.4,1.7C1.4,4.6,1.8,5,2.3,5.4c-0.6,0-1.1-0.2-1.6-0.4v0c0,0.8,0.3,1.6,0.8,2.3c0.5,0.6,1.2,1,2,1.2 C3.2,8.5,2.9,8.6,2.6,8.6c-0.2,0-0.4,0-0.7-0.1c0.2,0.7,0.6,1.3,1.2,1.8s1.3,0.7,2,0.7c-1.3,1-2.7,1.5-4.3,1.5c-0.3,0-0.6,0-0.8-0.1 C1.6,13.5,3.4,14,5.4,14c1.2,0,2.4-0.2,3.5-0.6c1.1-0.4,2-0.9,2.8-1.6c0.8-0.7,1.4-1.5,2-2.3c0.6-0.8,1-1.8,1.2-2.7 c0.3-0.9,0.4-1.9,0.4-2.8c0-0.2,0-0.3,0-0.5C15.9,3,16.5,2.4,17,1.7C16.3,1.9,15.7,2.1,15,2.2z"></path>
</svg>
